<svg xmlns="http://www.w3.org/2000/svg" width="480" height="150" viewBox="0 0 480 150" role="img" aria-labelledby="title">
  <title id="title">Asufa logo</title>
  <rect width="480" height="150" fill="#fbfaf7"/>
  <path d="M36 112L83 30h17l47 82h-21l-9-17H65l-9 17H36zm38-34h34L91 46 74 78z" fill="#25211d"/>
  <path d="M174 112c-17 0-30-5-41-16l10-14c9 9 19 13 31 13 11 0 18-4 18-11 0-6-5-9-21-13-21-5-34-11-34-30 0-18 15-30 38-30 15 0 27 4 37 13l-9 15c-9-7-18-10-29-10-10 0-16 4-16 10 0 7 6 9 22 13 21 5 33 13 33 30 0 19-15 30-39 30z" fill="#25211d"/>
  <path d="M264 112c-25 0-40-14-40-40V12h20v59c0 16 8 24 21 24s21-8 21-24V12h20v59c0 27-16 41-42 41z" fill="#25211d"/>
  <path d="M324 112V12h74v18h-54v24h48v18h-48v40h-20z" fill="#25211d"/>
  <path d="M391 112l47-100h18l47 100h-22l-9-20h-51l-9 20h-21zm38-37h35l-18-39-17 39z" fill="#25211d"/>
  <text x="238" y="139" text-anchor="middle" fill="#a45a3b" font-family="Arial, sans-serif" font-size="24" font-weight="700">אסופה</text>
</svg>
