<svg xmlns="http://www.w3.org/2000/svg" width="800" height="800" viewBox="0 0 800 800" role="img" aria-labelledby="title">
  <title id="title">Stoneware coffee set</title>
  <rect width="800" height="800" fill="#e9e0d3"/>
  <ellipse cx="400" cy="604" rx="280" ry="52" fill="#c7baa9"/>
  <g transform="translate(150 205)">
    <rect x="0" y="92" width="150" height="175" rx="34" fill="#f7efe4"/>
    <path d="M130 132h36c35 0 35 86 0 86h-36" fill="none" stroke="#f7efe4" stroke-width="24"/>
    <path d="M20 138h108" stroke="#2f2a25" stroke-width="18" opacity="0.85"/>
  </g>
  <g transform="translate(330 180)">
    <rect x="0" y="92" width="150" height="175" rx="34" fill="#2f2a25"/>
    <path d="M130 132h36c35 0 35 86 0 86h-36" fill="none" stroke="#2f2a25" stroke-width="24"/>
    <path d="M22 137h104" stroke="#f7efe4" stroke-width="18" opacity="0.86"/>
  </g>
  <g transform="translate(510 225)">
    <rect x="0" y="92" width="150" height="175" rx="34" fill="#d7b98c"/>
    <path d="M130 132h36c35 0 35 86 0 86h-36" fill="none" stroke="#d7b98c" stroke-width="24"/>
    <path d="M22 140h104" stroke="#a45a3b" stroke-width="18" opacity="0.72"/>
  </g>
  <circle cx="160" cy="190" r="74" fill="#a45a3b" opacity="0.16"/>
</svg>
